<svg width="1322" height="1021" viewBox="0 0 1322 1021" fill="none" xmlns="http://www.w3.org/2000/svg">
<path fill-rule="evenodd" clip-rule="evenodd" d="M421.283 -282.758C548.247 -330.879 680.949 -232.096 803.189 -172.994C915.872 -118.512 1015.05 -49.3184 1097.99 44.4239C1195.35 154.479 1331.11 265.593 1320.9 412.181C1310.7 558.729 1156.01 644.512 1049.18 745.346C956.881 832.46 863.739 915.219 743.844 956.843C615.487 1001.41 465.833 1055.72 347.5 988.948C230.21 922.763 246.213 748.695 173.775 635.16C101.435 521.777 -81.1917 463.259 -73.5749 328.981C-65.9624 194.78 122.258 157.551 206.795 53.0468C292.424 -52.8066 293.969 -234.505 421.283 -282.758Z" fill="url(#paint0_linear_2_92)"/>
<defs>
<linearGradient id="paint0_linear_2_92" x1="-198" y1="-122.788" x2="1486.63" y2="-4.37254" gradientUnits="userSpaceOnUse">
<stop stop-color="#6ECCFF"/>
<stop offset="1" stop-color="#28B4FF"/>
</linearGradient>
</defs>
</svg>
