<svg width="941" height="990" viewBox="0 0 941 990" fill="none" xmlns="http://www.w3.org/2000/svg">
<path fill-rule="evenodd" clip-rule="evenodd" d="M570.244 -102.384C720.47 -103.917 839.227 -329.012 978.067 -271.642C1107.13 -218.311 1051.11 -10.1952 1105.03 118.593C1156.52 241.564 1309.11 334.314 1286.79 465.74C1264.38 597.658 1096.12 641.852 1000.28 735.264C914.56 818.819 870.082 959.674 753.244 985.798C636.386 1011.93 533.843 909.438 422.912 864.362C324.757 824.477 213.965 811.173 139.085 736.235C61.6233 658.716 18.1218 552.804 3.12964 444.262C-11.8115 336.09 30.2661 233.88 55.0066 127.52C86.3653 -7.29208 41.3048 -206.963 167.734 -263.377C302.424 -323.477 422.754 -100.88 570.244 -102.384Z" fill="url(#paint0_linear_2_91)"/>
<defs>
<linearGradient id="paint0_linear_2_91" x1="403" y1="1154" x2="1313.29" y2="196.28" gradientUnits="userSpaceOnUse">
<stop stop-color="#FFBCDD"/>
<stop offset="0.46875" stop-color="#FFD3CA"/>
<stop offset="1" stop-color="#06A4FF"/>
</linearGradient>
</defs>
</svg>
