<svg width="24" height="24" viewBox="0 0 24 24" fill="none" xmlns="http://www.w3.org/2000/svg">
<path d="M11 2C8.66004 2 5.71004 3.72 5.76004 8.16L2.04004 12.98C1.93004 13.12 2.06004 13.3 2.26004 13.3L4.74004 14.53C4.87004 15.45 5.35004 18.13 5.61004 19.47C5.70004 19.89 9.80004 19.57 9.80004 19.57L11 22" fill="#B5CDFB"/>
<path d="M11 2C8.66004 2 5.71004 3.72 5.76004 8.16L2.04004 12.98C1.93004 13.12 2.06004 13.3 2.26004 13.3L4.74004 14.53C4.87004 15.45 5.35004 18.13 5.61004 19.47C5.70004 19.89 9.80004 19.57 9.80004 19.57L11 22" stroke="#3913B8" stroke-width="1.2" stroke-miterlimit="10" stroke-linecap="round" stroke-linejoin="round"/>
<path fill-rule="evenodd" clip-rule="evenodd" d="M15.845 2.20218C15.9567 1.89019 15.7943 1.54675 15.4823 1.43509C15.1703 1.32343 14.8269 1.48583 14.7152 1.79782L13.6952 4.64782C13.5836 4.95981 13.746 5.30325 14.058 5.41491C14.3699 5.52657 14.7134 5.36417 14.825 5.05218L15.845 2.20218ZM22.0494 5.22033C22.3147 5.02175 22.3688 4.64572 22.1702 4.38044C21.9717 4.11516 21.5956 4.06108 21.3303 4.25965L17.9103 6.81965C17.6451 7.01823 17.591 7.39426 17.7896 7.65954C17.9881 7.92482 18.3642 7.9789 18.6294 7.78033L22.0494 5.22033ZM18.1315 11.8261C18.1557 11.4956 18.4433 11.2473 18.7738 11.2716L22.0438 11.5116C22.3743 11.5359 22.6225 11.8234 22.5982 12.1539C22.574 12.4844 22.2864 12.7326 21.9559 12.7084L18.6859 12.4684C18.3555 12.4441 18.1072 12.1566 18.1315 11.8261ZM11.7201 17.31C11.3887 17.31 11.1201 17.5787 11.1201 17.91C11.1201 18.2414 11.3887 18.51 11.7201 18.51H14.3501C14.6815 18.51 14.9501 18.2414 14.9501 17.91C14.9501 17.5787 14.6815 17.31 14.3501 17.31H11.7201ZM11.1201 15.33C11.1201 14.9986 11.3887 14.73 11.7201 14.73H11.8795C10.5603 13.6226 8.75422 11.1929 10.2302 9.25002C11.6702 7.36002 14.4002 7.36002 15.8402 9.25002C17.3146 11.1909 15.5208 13.6245 14.1985 14.73H14.3501C14.6815 14.73 14.9501 14.9986 14.9501 15.33C14.9501 15.6613 14.6815 15.93 14.3501 15.93H11.7201C11.3887 15.93 11.1201 15.6613 11.1201 15.33ZM13.6402 14.73V12.1748C13.9187 11.9752 14.1001 11.6488 14.1001 11.28C14.1001 10.6725 13.6077 10.18 13.0001 10.18C12.3926 10.18 11.9001 10.6725 11.9001 11.28C11.9001 11.6831 12.1169 12.0355 12.4402 12.227V14.73H13.6402ZM12.9731 11.1837C12.9858 11.1823 12.9987 11.1813 13.0117 11.1807C13.0079 11.1802 13.0041 11.18 13.0001 11.18C12.9908 11.18 12.9817 11.1813 12.9731 11.1837Z" fill="#3913B8"/>
</svg>
