<svg width="167" height="32" viewBox="0 0 167 32" fill="none" xmlns="http://www.w3.org/2000/svg">
<path d="M84.1004 5.32971V31.013H77.6079V0.0140991H92.2918C97.6197 0.0140991 102.948 2.67014 102.948 8.51414C102.948 11.304 101.47 13.562 99.144 15.0239C101.918 16.3519 104.023 18.8318 104.023 22.0198C104.023 28.1738 98.6953 31.0095 93.0112 31.0095H86.3406L87.5052 27.1135C87.8186 26.2716 88.6698 25.6974 89.5637 25.6974C92.6088 25.6974 97.5307 25.9616 97.5307 21.6675C97.5307 18.9234 95.0234 17.6835 92.5162 17.6835H86.4296C86.8784 16.4893 86.9674 15.9961 87.4162 14.802C87.7296 13.9601 88.6235 13.3859 89.521 13.3859C92.2063 13.3859 96.4587 12.7694 96.4587 9.00731C96.4587 6.39353 94.2185 5.33323 91.8929 5.33323H84.104L84.1004 5.32971Z" fill="white"/>
<path d="M166.032 31.013H160.255C159.45 31.013 158.599 30.5692 158.239 29.8188L153.314 20.343C152.954 19.5892 152.106 19.1489 151.298 19.1489H145.567V31.0165H139.075V13.8755H153.848C156.444 13.8755 158.727 12.4595 158.727 9.71183C158.727 6.9642 156.444 5.54811 153.848 5.54811H141.311C140.104 5.54811 139.071 4.53008 139.071 3.33591V0.0140991H154.428C160.294 0.0140991 165.216 3.51204 165.216 9.62376C165.216 13.5656 162.755 16.7535 159.172 18.2577L166.021 31.0095L166.032 31.013Z" fill="white"/>
<path d="M6.3893 31.013H0.473717C0.21017 31.013 -0.00351757 30.8157 4.3881e-05 30.5797C4.3881e-05 30.5339 0.0107282 30.4846 0.0285355 30.4388L12.0342 0.429773C12.1482 0.172623 12.4295 0.00706093 12.7358 0.0176287H20.4891C20.7847 0.0176287 21.0518 0.183191 21.1587 0.429773L33.2961 30.4388C33.3851 30.6643 33.2533 30.9073 33.004 30.9884C32.9542 31.0024 32.9008 31.013 32.8473 31.013H26.7181C26.5186 31.013 26.337 30.9038 26.2658 30.7383L16.917 6.63308C16.8279 6.41115 16.7887 6.30195 16.6249 6.30548C16.486 6.30548 16.3899 6.51331 16.34 6.63308L6.84872 30.7347C6.77393 30.9038 6.5923 31.013 6.3893 31.0095V31.013Z" fill="white"/>
<path d="M132.7 0H110.071C109.697 0 109.394 0.299421 109.394 0.669295C109.394 3.37465 111.609 5.56571 114.344 5.56571H132.697C132.974 5.56924 133.199 5.35083 133.202 5.07959C133.202 5.07607 133.202 5.06903 133.202 5.0655V0.50021C133.202 0.221924 132.974 0 132.697 0H132.7Z" fill="white"/>
<path d="M132.7 25.472H115.812C115.534 25.4684 115.31 25.2465 115.306 24.9718V18.9129C115.306 18.6346 115.534 18.4127 115.812 18.4127H131.422C131.703 18.4127 131.927 18.1872 131.927 17.9125V13.3155C131.927 13.0372 131.699 12.8152 131.422 12.8152H110.149C109.729 12.8188 109.394 13.1569 109.394 13.5691V30.2662C109.394 30.6784 109.732 31.013 110.149 31.013H132.697C132.978 31.013 133.202 30.7876 133.202 30.5128V25.951C133.192 25.6833 132.967 25.472 132.697 25.4755L132.7 25.472Z" fill="white"/>
<path d="M71.8596 0.0140991V31.0095H65.367V8.20767L55.0246 28.7973L44.5218 8.20767V31.0095H38.0293V0.0140991H44.1479C44.2369 0.0140991 44.326 0.0140993 44.4114 0.0211445C44.5681 0.0317123 44.7213 0.0563706 44.8709 0.0845515C45.9144 0.306475 46.8154 0.986338 47.3247 1.9621L54.9355 16.6619L54.9462 16.6443L54.9533 16.6619L62.5642 1.9621C63.045 1.04622 63.8641 0.391018 64.8221 0.133868C64.8934 0.116255 64.961 0.0986419 65.0323 0.0845515C65.1035 0.070461 65.1747 0.0598931 65.2459 0.0493253C65.4026 0.0246671 65.5629 0.0140991 65.7267 0.0140991H71.8596V0.0140991Z" fill="white"/>
</svg>
